<svg width="34" height="11" fill="none" xmlns="http://www.w3.org/2000/svg"><path fill-rule="evenodd" clip-rule="evenodd" d="M.18 2.02c.24.24 1.44.96 1.68 1.67.24.72.72 5.31 2.15 6.5 1.49 1.24 7.08.78 8.15.25 2.4-1.2 2.7-5.06 3.12-6.75.24-.95 1.67-.95 1.67-.95s1.44 0 1.68.95c.43 1.7.72 5.56 3.12 6.76 1.07.53 6.66 1 8.15-.24 1.43-1.2 1.91-5.8 2.15-6.52.24-.72 1.44-1.43 1.68-1.67s.24-1.2 0-1.44C33.25.1 27.6-.32 21.51.34c-1.22.14-1.68.48-4.56.48-2.87 0-3.34-.35-4.55-.48C6.32-.32.66.1.18.58c-.24.24-.24 1.2 0 1.44Z" fill="#fff"/></svg>