<svg width="87" height="85" fill="none" xmlns="http://www.w3.org/2000/svg"><path fill-rule="evenodd" clip-rule="evenodd" d="M44.01.7a.7.7 0 1 0-1.4 0v3.07a.7.7 0 1 0 1.4 0V.7Zm0 5.98a.7.7 0 1 0-1.4 0v3.62a.7.7 0 1 0 1.4 0V6.68ZM14.62 18.15a.7.7 0 1 0-1 .99l2.81 2.83a.7.7 0 1 0 1-.99l-2.8-2.83ZM9.4 13.97a.7.7 0 0 1 .99.02l2.48 2.6a.7.7 0 1 1-1 .97l-2.5-2.6a.7.7 0 0 1 .03-1Zm63.77 5.1a.7.7 0 1 0-.99-1l-2.32 2.28a.7.7 0 1 0 .98 1l2.33-2.28Zm4.08-5.5a.7.7 0 0 1 .02 1l-1.85 1.89a.7.7 0 1 1-1-.98l1.84-1.89a.7.7 0 0 1 1-.01Zm-17.88-3.3a.7.7 0 0 0-1.3-.56l-3.2 7.56a.7.7 0 1 0 1.29.55l3.2-7.56Zm-32.38.03a.7.7 0 0 1 .93.33l3.2 6.85a.7.7 0 1 1-1.26.6l-3.21-6.85a.7.7 0 0 1 .34-.93ZM13.37 34.97c.4-2.26-1.17-4.22-3.1-4.84a4.2 4.2 0 0 0-3.16.22 5.71 5.71 0 0 0-2.61 2.96l-.03.07-.02.07L.12 54.62a5 5 0 0 0 .08 2.52c.24.8.7 1.57 1.3 2.5l.03.02.02.02 9.62 11.96.04.06.06.05c.07.06.34.38.45 1.14a7 7 0 0 1-.25 2.75 8.3 8.3 0 0 0-.33-.07c-.3-.06-.67-.1-1.03-.03-.4.07-.74.27-1 .64-.25.33-.4.77-.49 1.27l-.48 2.51 1.38.27.48-2.52v-.01c.07-.4.17-.6.23-.7.05-.06.09-.07.14-.09.1-.01.25-.01.51.04l.55.12.37.1h.01l13.95 2.98.12.03c.55.12.95.22 1.26.3.33.1.45.18.49.21a.28.28 0 0 1 0 .07c0 .14-.04.38-.15.81v.01l-.57 2.28 1.37.34.56-2.28c.1-.42.2-.82.2-1.17 0-.4-.13-.79-.46-1.1-.29-.25-.67-.4-1.04-.5-.22-.07-.49-.14-.78-.2l2.32-9.87v-.02l.01-.03c.18-1.2.03-4.06-2.02-6.1L14.82 48.57l-.05-.06-.06-.04c-2.1-1.61-4.45-1.39-5.99-.16a4.24 4.24 0 0 0-.98 5.55l.03.05.03.04 6.66 8.34 1.1-.88-6.63-8.3a2.83 2.83 0 0 1 .67-3.7c1.01-.81 2.63-1.04 4.2.13l12.22 14.34.02.02.02.03a6.14 6.14 0 0 1 1.65 4.87l-2.32 9.85-12.55-2.7c.34-1.33.39-2.4.27-3.25a3.33 3.33 0 0 0-.89-1.97L2.66 58.83a8.32 8.32 0 0 1-1.12-2.1 3.6 3.6 0 0 1-.04-1.83L5.8 33.8a4.29 4.29 0 0 1 1.92-2.2 2.8 2.8 0 0 1 2.1-.14c1.4.44 2.4 1.82 2.16 3.25l-1.76 8.33 1.37.29L13.36 35v-.01l.01-.02Zm63.31-4.78c-1.94.61-3.52 2.57-3.12 4.84v.02l1.78 8.33 1.37-.29-1.77-8.32c-.24-1.43.76-2.8 2.16-3.24.69-.22 1.43-.2 2.13.14.69.33 1.38 1 1.93 2.2l4.34 21.06c.14.73.12 1.28-.05 1.83a8.3 8.3 0 0 1-1.12 2.1l-9.62 11.87c-.4.37-.75 1.05-.89 1.98-.12.83-.07 1.91.27 3.25l-12.63 2.68-2.33-9.83a6.1 6.1 0 0 1 1.65-4.87l.03-.02.02-.03 12.29-14.32c1.58-1.18 3.21-.95 4.23-.13a2.81 2.81 0 0 1 .67 3.7l-6.66 8.29 1.1.87 6.7-8.33.03-.04.02-.05a4.22 4.22 0 0 0-.98-5.54c-1.55-1.23-3.91-1.45-6.02.15l-.06.05-.05.06-12.32 14.36a7.5 7.5 0 0 0-2.03 6.08v.06l2.34 9.85c-.3.07-.56.13-.79.2-.37.1-.75.25-1.04.51-.33.3-.46.69-.46 1.1 0 .35.09.75.2 1.17l.57 2.27 1.36-.34-.57-2.28a3.53 3.53 0 0 1-.15-.88c.04-.04.16-.1.5-.2.3-.1.7-.19 1.26-.32l.12-.02 14.03-2.99h.01l.37-.09.55-.12c.27-.05.42-.06.52-.04.06.01.1.03.15.1.06.09.16.28.23.69l.48 2.52 1.38-.26-.48-2.51c-.1-.5-.24-.94-.49-1.28a1.6 1.6 0 0 0-1-.64 2.81 2.81 0 0 0-1.04.04l-.34.07a6.95 6.95 0 0 1-.25-2.74c.11-.76.38-1.09.45-1.15l.06-.04.04-.06 9.68-11.95.02-.02.02-.03a9.68 9.68 0 0 0 1.32-2.49c.25-.82.26-1.6.08-2.51v-.01L82.52 33.5l-.01-.08-.04-.07a5.72 5.72 0 0 0-2.63-2.96 4.24 4.24 0 0 0-3.16-.21Zm-12.64 11.9c0 11.15-9.22 20.24-20.65 20.24-11.43 0-20.65-9.09-20.65-20.24 0-11.15 9.22-20.23 20.65-20.23 11.43 0 20.65 9.08 20.65 20.23Zm1.4 0c0 11.95-9.87 21.64-22.05 21.64-12.18 0-22.05-9.69-22.05-21.64 0-11.95 9.87-21.64 22.05-21.64 12.18 0 22.06 9.7 22.06 21.64Z" fill="#fff"/></svg>