<svg width="20" height="20" fill="none" xmlns="http://www.w3.org/2000/svg"><path d="M4.57 1.66a.85.85 0 0 0-1.27-.08L2 2.88c-.6.6-.82 1.46-.56 2.2 1.1 3.12 2.88 5.94 5.21 8.27a21.96 21.96 0 0 0 8.26 5.2c.76.27 1.61.05 2.22-.56l1.29-1.29a.85.85 0 0 0-.08-1.27l-2.88-2.24a.85.85 0 0 0-.73-.15l-2.74.68a2.18 2.18 0 0 1-2.07-.57l-3.07-3.07A2.18 2.18 0 0 1 6.28 8l.68-2.74a.85.85 0 0 0-.15-.73L4.57 1.66ZM2.36.64a2.18 2.18 0 0 1 3.26.2l2.24 2.89c.41.52.56 1.21.4 1.86l-.69 2.74a.85.85 0 0 0 .23.8l3.07 3.07a.85.85 0 0 0 .8.23l2.74-.69a2.18 2.18 0 0 1 1.87.4l2.88 2.24c1.03.8 1.13 2.34.2 3.26l-1.3 1.3a3.47 3.47 0 0 1-3.59.87 23.3 23.3 0 0 1-8.76-5.52A23.3 23.3 0 0 1 .19 5.53a3.47 3.47 0 0 1 .87-3.6l1.3-1.3Z" fill="#fff"/></svg>